<mxfile host="app.diagrams.net" modified="2024-04-10T07:15:15.115Z" agent="Mozilla/5.0 (Macintosh; Intel Mac OS X 10_15_7) AppleWebKit/537.36 (KHTML, like Gecko) Chrome/123.0.0.0 Safari/537.36" version="24.0.7" etag="mGpqjq_66xtIo5JDW6fQ" type="github">
  <diagram name="第 1 页" id="atEx6pt06kHlxshcNqhK">
    <mxGraphModel>
      <root>
        <mxCell id="0" />
        <mxCell id="1" parent="0" />
      </root>
    </mxGraphModel>
  </diagram>
</mxfile>
